<?xml version="1.0" encoding="utf-8"?>
<!-- Generator: Adobe Illustrator 26.0.3, SVG Export Plug-In . SVG Version: 6.00 Build 0)  -->
<svg version="1.1" id="Layer_1" xmlns="http://www.w3.org/2000/svg" xmlns:xlink="http://www.w3.org/1999/xlink" x="0px" y="0px"
	 viewBox="0 0 1366 768" style="enable-background:new 0 0 1366 768;" xml:space="preserve">
<style type="text/css">
	.st0{fill:#3392CC;}
	.st1{fill:#FFFFFF;}
	.st2{fill:#E31837;}
	.st3{fill:#006491;}
</style>
<rect class="st0" width="350" height="90"/>
<g>
	<path id="path8_00000160910680218821375650000010611336623393455488_" class="st1" d="M881.7,227.3L777.2,123
		c-9-9.1-23.6-9.2-32.7-0.2c-0.1,0.1-0.1,0.1-0.2,0.2l-87.3,88.3l-146,145c-9.1,9.1-9.2,23.8-0.1,33c0,0,0.1,0.1,0.1,0.1
		l104.3,104.3c9.1,9.1,23.8,9.2,33,0.1c0,0,0.1-0.1,0.1-0.1L779.1,363l102.6-102.6C890.9,251.3,890.9,236.5,881.7,227.3
		C881.8,227.4,881.8,227.3,881.7,227.3"/>
	<path id="path10_00000131340568153140680780000007079653792773714865_" class="st2" d="M782.6,265c-5.7,5.7-13.4,8.8-21.4,8.8
		c-16.7,0-30.3-13.5-30.4-30.2c0-8,3.3-15.7,9-21.4c5.7-5.7,13.4-8.8,21.4-8.8c8,0,15.7,3.1,21.4,8.8c5.4,5.8,8.3,13.5,8.2,21.4
		c0,8-3.2,15.7-8.8,21.4 M873.7,234.8L770,130.4c-4.7-5.3-12.8-5.7-18.1-1c-0.4,0.3-0.7,0.7-1,1L637.9,243.2L760.6,366l112.9-113.1
		c5-4.8,5.2-12.8,0.3-17.8c-0.1-0.1-0.2-0.2-0.3-0.3"/>
	<path id="path12_00000181077101191520259390000006822837514526914199_" class="st3" d="M654.8,352.1c5.7-5.6,13.4-8.7,21.4-8.8
		c16.7,0,30.3,13.5,30.4,30.2c-0.1,16.7-13.6,30.3-30.4,30.4c-8,0-15.7-3.3-21.4-9c-5.7-5.7-8.8-13.4-8.8-21.4
		C645.9,365.5,649.1,357.8,654.8,352.1 M608.9,393.7c-5.7,5.5-13.4,8.6-21.4,8.6c-8,0-15.7-3.1-21.4-8.8
		c-11.8-11.6-12-30.6-0.4-42.4c0.1-0.1,0.3-0.3,0.4-0.4c5.7-5.7,13.4-8.8,21.4-8.8c8,0,15.7,3.2,21.4,8.8c11.8,11.8,11.8,31,0,42.8
		 M518.3,364.1c-5.3,5-5.5,13.4-0.5,18.6c0.2,0.2,0.3,0.3,0.5,0.5l104.5,104.3c4.5,5.3,12.5,5.9,17.8,1.3c0.5-0.4,0.9-0.8,1.3-1.3
		l112.9-112.7l-123.6-124L518.3,364.1z"/>
	<path id="path14_00000128482633071953623250000011420215900200701605_" class="st3" d="M703.9,458.5c-8.8,0-15.9,7.1-16,15.9
		c-1,8.8,5.4,16.7,14.2,17.7c8.8,1,16.7-5.4,17.7-14.2c0.1-1.2,0.1-2.3,0-3.5c-0.1-8.7-7.2-15.7-15.9-15.7 M716.7,474.5
		c0.1,7.2-5.6,13.1-12.8,13.2c-7.2,0.1-13.1-5.6-13.2-12.8c-0.1-7.2,5.6-13.1,12.8-13.2c0.1,0,0.3,0,0.4,0c7-0.1,12.7,5.5,12.8,12.4
		C716.7,474.3,716.7,474.4,716.7,474.5"/>
	<path id="path16_00000094602944630507717420000007352062117586725272_" class="st3" d="M711.3,470.9c-0.1-3.3-2.8-5.8-6.1-5.7
		c-0.1,0-0.1,0-0.2,0h-7.5v19.1h3.1v-7.1h2.7l4.4,6.9h4l-4.8-7.3c2.7-0.5,4.5-2.9,4.4-5.5 M708.1,471.3c-0.1,1.6-1.4,2.9-3.1,2.9
		h-4.4v-5.7h4.4C706.6,468.4,708,469.7,708.1,471.3"/>
	<path id="path58_00000163754101690865396790000000311051668713548196_" class="st1" d="M881.7,227.3L777.2,123
		c-9-9.1-23.6-9.2-32.7-0.2c-0.1,0.1-0.1,0.1-0.2,0.2l-87.3,88.3l-146,145c-9.1,9.1-9.2,23.8-0.1,33c0,0,0.1,0.1,0.1,0.1
		l104.3,104.3c9.1,9.1,23.8,9.2,33,0.1c0,0,0.1-0.1,0.1-0.1L779.1,363l102.6-102.6C890.9,251.3,890.9,236.5,881.7,227.3
		C881.8,227.4,881.8,227.3,881.7,227.3"/>
	<path id="path60_00000084508631049414985940000012840285204492906633_" class="st2" d="M782.6,265c-5.7,5.7-13.4,8.8-21.4,8.8
		c-16.7,0-30.3-13.5-30.4-30.2c0-8,3.3-15.7,9-21.4c5.7-5.7,13.4-8.8,21.4-8.8c8,0,15.7,3.1,21.4,8.8c5.4,5.8,8.3,13.5,8.2,21.4
		c0,8-3.2,15.7-8.8,21.4 M873.7,234.8L770,130.4c-4.7-5.3-12.8-5.7-18.1-1c-0.4,0.3-0.7,0.7-1,1L637.9,243.2L760.6,366l112.9-113.1
		c5-4.8,5.2-12.8,0.3-17.8c-0.1-0.1-0.2-0.2-0.3-0.3"/>
	<path id="path62_00000070112349115514301860000015492160226622269324_" class="st0" d="M654.8,352.1c5.7-5.6,13.4-8.7,21.4-8.8
		c16.7,0,30.3,13.5,30.4,30.2c-0.1,16.7-13.6,30.3-30.4,30.4c-8,0-15.7-3.3-21.4-9c-5.7-5.7-8.8-13.4-8.8-21.4
		C645.9,365.5,649.1,357.8,654.8,352.1 M608.9,393.7c-5.7,5.5-13.4,8.6-21.4,8.6c-8,0-15.7-3.1-21.4-8.8
		c-11.8-11.6-12-30.6-0.4-42.4c0.1-0.1,0.3-0.3,0.4-0.4c5.7-5.7,13.4-8.8,21.4-8.8c8,0,15.7,3.2,21.4,8.8c11.8,11.8,11.8,31,0,42.8
		 M518.3,364.1c-5.3,5-5.5,13.4-0.5,18.6c0.2,0.2,0.3,0.3,0.5,0.5l104.5,104.3c4.5,5.3,12.5,5.9,17.8,1.3c0.5-0.4,0.9-0.8,1.3-1.3
		l112.9-112.7l-123.6-124L518.3,364.1z"/>
	<path id="path64_00000077289200853057825720000004499775524547389842_" class="st1" d="M703.9,458.5c-8.8,0-15.9,7.1-16,15.9
		c-1,8.8,5.4,16.7,14.2,17.7c8.8,1,16.7-5.4,17.7-14.2c0.1-1.2,0.1-2.3,0-3.5c-0.1-8.7-7.2-15.7-15.9-15.7 M716.7,474.5
		c0.1,7.2-5.6,13.1-12.8,13.2c-7.2,0.1-13.1-5.6-13.2-12.8c-0.1-7.2,5.6-13.1,12.8-13.2c0.1,0,0.3,0,0.4,0c7-0.1,12.7,5.5,12.8,12.4
		C716.7,474.3,716.7,474.4,716.7,474.5"/>
	<path id="path66_00000082368229031497303430000002849558036339282324_" class="st1" d="M711.3,470.9c-0.1-3.3-2.8-5.8-6.1-5.7
		c-0.1,0-0.1,0-0.2,0h-7.5v19.1h3.1v-7.1h2.7l4.4,6.9h4l-4.8-7.3c2.7-0.5,4.5-2.9,4.4-5.5 M708.1,471.3c-0.1,1.6-1.4,2.9-3.1,2.9
		h-4.4v-5.7h4.4C706.6,468.4,708,469.7,708.1,471.3"/>
</g>
<g>
	<g>
		<path id="path32_00000088812898977866167620000000125489214519807109_" class="st1" d="M364.4,636.6h-16.6v-54.9h16.6
			c13.9-1.3,26.3,8.9,27.7,22.8c0.2,1.6,0.2,3.1,0,4.7c0.4,14.8-11.4,27.1-26.2,27.5C365.4,636.6,364.9,636.6,364.4,636.6
			 M364.4,551.4h-49c-1.5-0.1-2.9,1-3,2.5c0,0.1,0,0.1,0,0.2v110.3c0,1.5,1.2,2.8,2.8,2.8c0.1,0,0.1,0,0.2,0h49
			c32,2.7,60.1-21,62.9-53c2.7-32-21-60.1-53-62.9C371.1,551.1,367.7,551.1,364.4,551.4"/>
		<path id="path34_00000119810468071157567620000001511758611835705758_" class="st1" d="M653.6,581c-11.6,0-22.5,5.4-29.4,14.7
			c-3.7-9.9-13.6-15.9-24.1-14.7c-10.5-0.2-20.7,4-27.9,11.7v-6.8c0-1.5-1.2-2.8-2.8-2.8c-0.1,0-0.1,0-0.2,0H544
			c-1.5-0.1-2.9,1-3,2.5c0,0.1,0,0.1,0,0.2v78.4c0,1.5,1.2,2.8,2.8,2.8c0.1,0,0.1,0,0.2,0h25.3c1.5,0.1,2.9-1,3-2.5
			c0-0.1,0-0.1,0-0.2v-49c3-4,7.7-6.5,12.8-6.6c4.7-0.6,8.9,2.7,9.6,7.3c0.1,0.7,0.1,1.4,0,2v46.2c0,1.5,1.2,2.8,2.8,2.8l0,0H623
			c1.6,0,2.9-1.2,3-2.8v-49c2.9-4.1,7.7-6.6,12.8-6.6c4.7-0.6,8.9,2.7,9.6,7.3c0.1,0.7,0.1,1.4,0,2v46.2c0,1.5,1.2,2.8,2.8,2.8
			c0.1,0,0.1,0,0.2,0h25.3c1.5,0.1,2.9-1,3-2.5c0-0.1,0-0.1,0-0.2v-57.9c1.4-12.6-7.7-24-20.3-25.4
			C657.4,580.7,655.5,580.7,653.6,581"/>
		<path id="path36_00000040555646600767155550000001151425930538382484_" class="st1" d="M724.7,583.1h-25.6c-1.5,0-2.8,1.2-2.8,2.8
			c0,0.1,0,0.1,0,0.2v78.2c0,1.5,1.2,2.8,2.8,2.8l0,0h25.6c1.5,0.1,2.9-1,3-2.5c0-0.1,0-0.1,0-0.2v-78.2
			C727.7,584.5,726.4,583.1,724.7,583.1"/>
		<path id="path38_00000142880200039741793090000006865527663274281357_" class="st1" d="M712.8,541.8c-9.8-0.1-17.8,7.7-17.9,17.5
			c-0.1,9.8,7.7,17.8,17.5,17.9c9.8,0.1,17.8-7.7,17.9-17.5c0-0.1,0-0.1,0-0.2C730.3,549.8,722.5,541.9,712.8,541.8"/>
		<path id="path40_00000041268927943990600080000004290967269820913042_" class="st1" d="M805,581c-10.9-0.6-21.4,3.7-28.7,11.7
			v-6.8c0-1.5-1.2-2.8-2.8-2.8c-0.1,0-0.1,0-0.2,0h-25.6c-1.5,0-2.8,1.2-2.8,2.8l0,0v78.4c0,1.5,1.2,2.8,2.8,2.8c0,0,0,0,0,0h25.6
			c1.5,0.1,2.9-1,3-2.5c0-0.1,0-0.1,0-0.2v-49c3.1-4.2,8-6.7,13.2-6.6c5.8-1,11.3,2.9,12.3,8.7c0.2,1.1,0.2,2.2,0.1,3.2v43.7
			c0,1.5,1.2,2.8,2.8,2.8l0,0h25.6c1.5,0.1,2.9-1,3-2.5c0-0.1,0-0.1,0-0.2v-56.9c0.9-13.7-9.4-25.6-23.2-26.6
			C808.3,580.7,806.7,580.8,805,581"/>
		<path id="path42_00000159430859606583807040000012025155342095639218_" class="st1" d="M483.3,639.5c-8.4,0-15.1-6.8-15.1-15.1
			c0-0.1,0-0.1,0-0.2c0-8.4,6.8-15.1,15.1-15.1c8.4,0,15.1,6.8,15.1,15.1c0.1,8.3-6.6,15.2-14.9,15.3
			C483.4,639.5,483.3,639.5,483.3,639.5 M483.3,580.6c-24.6-0.1-44.6,19.7-44.7,44.3c-0.1,24.6,19.7,44.6,44.3,44.7
			c24.6,0.1,44.6-19.7,44.7-44.3c0-0.1,0-0.1,0-0.2C527.6,600.6,507.8,580.7,483.3,580.6"/>
		<path id="path44_00000113313341320495889040000013462992541229801108_" class="st1" d="M890.6,639.5c-8.3-0.1-15-7-14.9-15.3
			c0.1-8.3,7-15,15.3-14.9c8.3,0.1,14.9,6.8,14.9,15.1c0,8.4-6.8,15.1-15.1,15.1C890.8,639.5,890.7,639.5,890.6,639.5 M890.6,580.8
			c-24.5,0.1-44.2,20-44.1,44.5c0.1,24.5,20,44.2,44.5,44.1c24.4-0.1,44.1-19.9,44.1-44.3c0-24.5-19.8-44.3-44.3-44.3
			C890.8,580.8,890.7,580.8,890.6,580.8"/>
		<path id="path46_00000151507626621552166490000010888401559885974203_" class="st1" d="M963.5,556.1L963.5,556.1L963.5,556.1
			c-2.4-9.4-11.8-15.2-21.3-13.2c-9.2,1.7-15.4,10.5-13.8,19.8c1.8,7.3,8.2,12.5,15.8,12.6c-0.7,3.1-2.8,5.7-5.5,7.2
			c-0.6,0.5-0.8,1.4-0.2,2.1c0.1,0.1,0.2,0.2,0.2,0.2l1.9,3c0.4,0.9,1.4,1.4,2.3,1.1c14.2-4,23.2-17.8,21.3-32.4"/>
		<path id="path48_00000100372213291243684230000001173218488704838792_" class="st1" d="M990.1,608c0-3,4-4.5,9.2-4.5
			c7.7,0.1,15.1,2.6,21.3,7.2c0.7,0.3,1.6,0.3,2.3,0c0,0,1.3,0,1.7-1.3l8.7-14.9c0.7-1.4,0.2-3.1-1.1-4c-10.6-6.6-22.9-9.9-35.3-9.6
			c-26,0-39.8,12.1-37.5,29.6c4,30.9,52,21.3,51.1,30.9c0,2.3-4.3,4.3-11.7,4.3c-9.6-0.6-18.9-3.7-27-8.9c-0.7-0.3-1.5-0.3-2.1,0
			c-0.8,0.2-1.5,0.7-1.9,1.5l-10,16.4c-0.7,1.4-0.2,3.1,1.1,4c11.5,6.9,24.7,10.6,38.1,10.6c26,0,41.1-11.1,41.1-29.4
			c0-33.9-48.8-23.2-49-31.7"/>
		<path id="path82_00000135687439332643849390000011534999350522239618_" class="st1" d="M364.4,636.6h-16.6v-54.9h16.6
			c13.9-1.3,26.3,8.9,27.7,22.8c0.2,1.6,0.2,3.1,0,4.7c0.4,14.8-11.4,27.1-26.2,27.5C365.4,636.6,364.9,636.6,364.4,636.6
			 M364.4,551.4h-49c-1.5-0.1-2.9,1-3,2.5c0,0.1,0,0.1,0,0.2v110.3c0,1.5,1.2,2.8,2.8,2.8c0.1,0,0.1,0,0.2,0h49
			c32,2.7,60.1-21,62.9-53c2.7-32-21-60.1-53-62.9C371.1,551.1,367.7,551.1,364.4,551.4"/>
		<path id="path84_00000060022752780165713560000006558945169783281559_" class="st1" d="M653.6,581c-11.6,0-22.5,5.4-29.4,14.7
			c-3.7-9.9-13.6-15.9-24.1-14.7c-10.5-0.2-20.7,4-27.9,11.7v-6.8c0-1.5-1.2-2.8-2.8-2.8c-0.1,0-0.1,0-0.2,0H544
			c-1.5-0.1-2.9,1-3,2.5c0,0.1,0,0.1,0,0.2v78.4c0,1.5,1.2,2.8,2.8,2.8c0.1,0,0.1,0,0.2,0h25.3c1.5,0.1,2.9-1,3-2.5
			c0-0.1,0-0.1,0-0.2v-49c3-4,7.7-6.5,12.8-6.6c4.7-0.6,8.9,2.7,9.6,7.3c0.1,0.7,0.1,1.4,0,2v46.2c0,1.5,1.2,2.8,2.8,2.8l0,0H623
			c1.6,0,2.9-1.2,3-2.8v-49c2.9-4.1,7.7-6.6,12.8-6.6c4.7-0.6,8.9,2.7,9.6,7.3c0.1,0.7,0.1,1.4,0,2v46.2c0,1.5,1.2,2.8,2.8,2.8
			c0.1,0,0.1,0,0.2,0h25.3c1.5,0.1,2.9-1,3-2.5c0-0.1,0-0.1,0-0.2v-57.9c1.4-12.6-7.7-24-20.3-25.4
			C657.4,580.7,655.5,580.7,653.6,581"/>
		<path id="path86_00000061437805065225947680000001532464876724555701_" class="st1" d="M724.7,583.1h-25.6c-1.5,0-2.8,1.2-2.8,2.8
			c0,0.1,0,0.1,0,0.2v78.2c0,1.5,1.2,2.8,2.8,2.8l0,0h25.6c1.5,0.1,2.9-1,3-2.5c0-0.1,0-0.1,0-0.2v-78.2
			C727.7,584.5,726.4,583.1,724.7,583.1"/>
		<path id="path88_00000150101113479227348670000013949426811110993291_" class="st1" d="M712.8,541.8c-9.8-0.1-17.8,7.7-17.9,17.5
			c-0.1,9.8,7.7,17.8,17.5,17.9c9.8,0.1,17.8-7.7,17.9-17.5c0-0.1,0-0.1,0-0.2C730.3,549.8,722.5,541.9,712.8,541.8"/>
		<path id="path90_00000064345988533781336420000018274041830889685895_" class="st1" d="M805,581c-10.9-0.6-21.4,3.7-28.7,11.7
			v-6.8c0-1.5-1.2-2.8-2.8-2.8c-0.1,0-0.1,0-0.2,0h-25.6c-1.5,0-2.8,1.2-2.8,2.8l0,0v78.4c0,1.5,1.2,2.8,2.8,2.8c0,0,0,0,0,0h25.6
			c1.5,0.1,2.9-1,3-2.5c0-0.1,0-0.1,0-0.2v-49c3.1-4.2,8-6.7,13.2-6.6c5.8-1,11.3,2.9,12.3,8.7c0.2,1.1,0.2,2.2,0.1,3.2v43.7
			c0,1.5,1.2,2.8,2.8,2.8l0,0h25.6c1.5,0.1,2.9-1,3-2.5c0-0.1,0-0.1,0-0.2v-56.9c0.9-13.7-9.4-25.6-23.2-26.6
			C808.3,580.7,806.7,580.8,805,581"/>
		<path id="path92_00000005255459919735751050000004534638617553771657_" class="st1" d="M483.3,639.5c-8.4,0-15.1-6.8-15.1-15.1
			c0-0.1,0-0.1,0-0.2c0-8.4,6.8-15.1,15.1-15.1c8.4,0,15.1,6.8,15.1,15.1c0.1,8.3-6.6,15.2-14.9,15.3
			C483.4,639.5,483.3,639.5,483.3,639.5 M483.3,580.6c-24.6-0.1-44.6,19.7-44.7,44.3c-0.1,24.6,19.7,44.6,44.3,44.7
			c24.6,0.1,44.6-19.7,44.7-44.3c0-0.1,0-0.1,0-0.2C527.6,600.6,507.8,580.7,483.3,580.6"/>
		<path id="path94_00000019669679497335915930000006890101143144032385_" class="st1" d="M890.6,639.5c-8.3-0.1-15-7-14.9-15.3
			c0.1-8.3,7-15,15.3-14.9c8.3,0.1,14.9,6.8,14.9,15.1c0,8.4-6.8,15.1-15.1,15.1C890.8,639.5,890.7,639.5,890.6,639.5 M890.6,580.8
			c-24.5,0.1-44.2,20-44.1,44.5c0.1,24.5,20,44.2,44.5,44.1c24.4-0.1,44.1-19.9,44.1-44.3c0-24.5-19.8-44.3-44.3-44.3
			C890.8,580.8,890.7,580.8,890.6,580.8"/>
		<path id="path96_00000049904556144486587310000016030055569750767268_" class="st1" d="M963.5,556.1L963.5,556.1L963.5,556.1
			c-2.4-9.4-11.8-15.2-21.3-13.2c-9.2,1.7-15.4,10.5-13.8,19.8c1.8,7.3,8.2,12.5,15.8,12.6c-0.7,3.1-2.8,5.7-5.5,7.2
			c-0.6,0.5-0.8,1.4-0.2,2.1c0.1,0.1,0.2,0.2,0.2,0.2l1.9,3c0.4,0.9,1.4,1.4,2.3,1.1c14.2-4,23.2-17.8,21.3-32.4"/>
		<path id="path98_00000120543926856571210760000010726504787549632142_" class="st1" d="M990.1,608c0-3,4-4.5,9.2-4.5
			c7.7,0.1,15.1,2.6,21.3,7.2c0.7,0.3,1.6,0.3,2.3,0c0,0,1.3,0,1.7-1.3l8.7-14.9c0.7-1.4,0.2-3.1-1.1-4c-10.6-6.6-22.9-9.9-35.3-9.6
			c-26,0-39.8,12.1-37.5,29.6c4,30.9,52,21.3,51.1,30.9c0,2.3-4.3,4.3-11.7,4.3c-9.6-0.6-18.9-3.7-27-8.9c-0.7-0.3-1.5-0.3-2.1,0
			c-0.8,0.2-1.5,0.7-1.9,1.5l-10,16.4c-0.7,1.4-0.2,3.1,1.1,4c11.5,6.9,24.7,10.6,38.1,10.6c26,0,41.1-11.1,41.1-29.4
			c0-33.9-48.8-23.2-49-31.7"/>
	</g>
</g>
</svg>
